<svg xmlns="http://www.w3.org/2000/svg" version="1.1" xmlns:xlink="http://www.w3.org/1999/xlink" xmlns:svgjs="http://svgjs.dev/svgjs" width="1000" height="1000" viewBox="0 0 1000 1000"><rect width="1000" height="1000" fill="#ffffff"></rect><g transform="matrix(0.7,0,0,0.7,150.0000000000001,106.25)"><svg viewBox="0 0 320 360" data-background-color="#77d4fc" preserveAspectRatio="xMidYMid meet" height="1125" width="1000" xmlns="http://www.w3.org/2000/svg" xmlns:xlink="http://www.w3.org/1999/xlink"><g id="tight-bounds" transform="matrix(1,0,0,1,0,0)"><svg viewBox="0 0 320 360" height="360" width="320"><g><svg></svg></g><g><svg viewBox="0 0 320 360" height="360" width="320"><g><path xmlns="http://www.w3.org/2000/svg" d="M20.961 227.22l3.726 4.658-1.863-6.056c-0.466-2.795-3.726 0.466-1.863 1.398M25.153 224.425c1.397 2.329 2.795 4.658 2.795 6.987 0 3.261 2.795 4.658 5.123 5.589-3.261-3.726-5.124-13.974-7.918-12.576M204.017 26.929c7.918 0 15.371-0.932 23.756 0.931 20.495 5.124 37.729 15.371 49.374 29.811l32.606 52.169c1.397 13.042 4.192 27.482 3.726 43.319 3.261 0 2.795-4.658 6.521-5.59-3.726 9.316-5.59 20.961-6.521 34.469-2.329-7.453 0-18.632 0.466-24.687-3.261 5.124-5.124 1.397-5.124-0.932 0.466-3.726-1.397-3.261-2.795-4.658-5.124-4.658-8.384-9.782-12.11-17.7 2.329-6.055 2.795-14.905-4.658-19.563-2.329-1.397-5.124-3.726-6.521-7.453-1.863-5.124-5.124-11.179-4.193-19.097 0.466-2.329-6.987 5.124-11.179 1.863-18.166-12.576-36.332-27.016-58.224-39.127-11.645 0-20.029-4.192-24.221-9.316-3.726-4.658-0.932-10.713 4.658-11.179 3.261 0 6.987-0.932 9.782 0.932 0.466-1.863 2.329-4.192 4.657-4.192M157.904 16.215l0.932 0.466c4.658 0.932 6.987 7.453 12.11 5.124 0 3.261 0.466 6.521-0.466 8.85-1.397 3.726-5.59 3.726-8.85 3.726-31.208-1.863-49.374 11.179-68.471 22.358-5.124 3.261-10.713 5.59-14.906 9.782-20.029 18.632-41.921 35.866-47.045 70.335l-4.192 38.195c-0.466 4.192-5.124 8.384-4.192 13.508l3.26 22.824c-3.261-3.261-5.124 0.932-4.192 2.795 0.466 1.397 2.329 6.055 5.124 1.863 3.726 6.987 7.453 20.495 12.576 26.55 15.837 18.632 36.332 35.4 53.101 52.169 4.192-0.932 7.453-0.932 8.384-3.727 1.397 2.795-1.397 5.59-3.726 6.056 7.453 4.658 15.837 8.85 27.016 9.781 14.44 0.932 27.948 3.261 40.524 6.522 6.521-1.863 13.042-2.795 20.029-3.261 2.329 0 3.726-3.726 6.521-4.658l0.466-4.658c2.795 4.192 2.329-1.397 0.466-4.192 3.261 2.795 4.192 5.124 5.589 6.987 0-1.397 3.726-6.521 3.727-0.466l0.931-6.055c1.397-0.932 1.863 5.124 3.261 0.931 1.397-4.192 4.192-0.932 6.987-2.329-0.932 1.863-0.466 5.59 2.794 3.261l3.727-3.261c2.329 5.59 6.055 3.261 7.918 2.329 20.495-13.042 40.99-28.413 60.553-43.784l-0.466 6.055 2.329-7.453c2.329 2.329 4.192 0.466 5.124-0.931 2.795-4.658 6.521-9.316 12.577-13.508-7.453 20.029-16.303 35.866-27.482 48.908l-4.658 5.59c0 3.261-0.932 7.453-4.658 7.918-1.863 0.466-5.59-0.932-8.384 1.863-1.397 1.863 3.261 5.59-0.466 2.795-3.261-2.329-6.521 0-10.248 0.932-2.795 0.932 1.863 3.726 2.795 5.589 0.932 1.863 1.863 3.726 1.398 6.056l-5.124-5.59c-6.055 3.261-9.782 9.316-14.906 13.974-2.329 1.863-1.397 5.124-1.397 7.918-3.261 0-6.987-0.932-8.85 0.932-1.397 1.863-0.932 4.658-0.932 7.453-4.658-0.466-5.124-7.453-9.315-6.056-4.192 0.932-8.85 1.397-12.577 3.727 2.795 5.59-4.658 2.329-3.726 3.26-6.987-4.192-13.042-7.453-20.495-4.658-15.837-5.124-35.4-2.795-49.84-0.931 0-2.329 0.466-4.658-0.466-5.124-0.932 2.329-3.726 1.397-3.26 1.397-8.85-6.055-17.7-9.782-27.016-14.905-8.384 0.932-16.303-3.261-18.632-5.59-6.521-6.055-13.974-2.795-20.029-4.192-13.042-3.261-17.7-16.769-19.098-26.084-0.932-4.658-4.658-6.521-6.055-6.056-6.055-19.563-15.371-37.263-22.824-55.429-1.863-4.658-1.397-9.316-1.397-14.44 2.329 0.932 4.658 0.466 4.192-2.794-2.329-15.371-7.918-27.016-13.974-38.195 3.261-15.837 3.726-34.469 11.179-48.443 6.521-12.576 18.632-19.098 27.016-29.811 2.795-3.726 2.795-8.85 5.59-12.11 9.316-9.316 18.632-19.098 28.879-27.482 4.658-3.726 10.247 0 17.234-1.397 2.329-8.384 11.645-15.837 20.495-13.508 3.726 0.932 11.179-8.85 13.508-9.782 3.726-1.397 1.863 3.726 1.863 6.987 8.85-6.987 20.961-10.713 32.14-14.906" fill="#0080ff" fill-rule="nonzero" stroke="none" stroke-width="1" stroke-linecap="butt" stroke-linejoin="miter" stroke-miterlimit="10" stroke-dasharray="" stroke-dashoffset="0" font-family="none" font-weight="none" font-size="none" text-anchor="none" style="mix-blend-mode: normal" data-fill-palette-color="tertiary"></path></g><g transform="matrix(1,0,0,1,64,160.61113949923353)"><svg viewBox="0 0 192 38.77772100153296" height="38.77772100153296" width="192"><g><svg viewBox="0 0 192 38.77772100153296" height="38.77772100153296" width="192"><g><svg viewBox="0 0 192 38.77772100153296" height="38.77772100153296" width="192"><g><svg viewBox="0 0 192 38.77772100153296" height="38.77772100153296" width="192"><g id="textblocktransform"><svg viewBox="0 0 192 38.77772100153296" height="38.77772100153296" width="192" id="textblock"><g><svg viewBox="0 0 192 38.77772100153296" height="38.77772100153296" width="192"><g transform="matrix(1,0,0,1,0,0)"><svg width="192" viewBox="1.7300000190734863 -38.09000015258789 191.10000610351562 38.599998474121094" height="38.77772100153296" data-palette-color="#0080ff"><path d="M11.01 0L1.73 0 1.73-1.32 5.71-1.32 5.71-34.23 1.73-34.23 1.73-35.55 5.71-35.55 15.6-35.55Q19.29-35.55 21.85-34.29 24.41-33.03 25.74-30.75 27.08-28.47 27.08-25.42L27.08-25.42Q27.08-22.31 25.74-20.03 24.41-17.75 21.85-16.5 19.29-15.26 15.6-15.26L15.6-15.26 7.03-15.26 7.03-1.32 11.01-1.32 11.01 0ZM7.03-34.23L7.03-16.58 15.6-16.58Q20.65-16.58 23.21-19.09 25.76-21.61 25.76-25.37L25.76-25.37Q25.76-29.22 23.22-31.73 20.68-34.23 15.6-34.23L15.6-34.23 7.03-34.23ZM40.55 0.51L40.55 0.51Q37.08 0.51 35-1.48 32.91-3.47 32.91-6.69L32.91-6.69Q32.91-9.06 34.34-10.88 35.76-12.7 38.36-13.72 40.96-14.75 44.48-14.75L44.48-14.75 50.56-14.75 50.56-18.12Q50.56-21.41 48.65-23.51 46.75-25.61 42.67-25.61L42.67-25.61Q40.52-25.61 38.74-24.8 36.96-24 35.72-22.85L35.72-22.85 35.72-18.53 34.4-18.53 34.4-23.56Q36.03-25.07 38.05-25.99 40.06-26.9 42.7-26.9L42.7-26.9Q47.26-26.9 49.57-24.52 51.88-22.14 51.88-18.07L51.88-18.07 51.88-5.32Q51.88-4.3 51.96-3.3 52.05-2.29 52.24-1.32L52.24-1.32 55.91-1.32 55.91 0 51.1 0Q50.78-1.73 50.67-2.65 50.56-3.56 50.56-4.86L50.56-4.86Q49.07-2.47 46.47-0.98 43.87 0.51 40.55 0.51ZM40.55-0.78L40.55-0.78Q43.55-0.78 46.36-2.47 49.17-4.15 50.56-7.13L50.56-7.13 50.56-13.4 44.55-13.4Q39.89-13.4 37.06-11.51 34.23-9.62 34.23-6.59L34.23-6.59Q34.23-4.13 36.01-2.45 37.79-0.78 40.55-0.78ZM69.06 0L59.79 0 59.79-1.32 63.76-1.32 63.76-25.1 59.79-25.1 59.79-26.42 64.89-26.42 65.06-20.97Q66.25-23.8 68.55-25.35 70.84-26.9 74.21-26.9L74.21-26.9Q78.54-26.9 80.7-24.18 82.86-21.46 82.86-15.55L82.86-15.55 82.86-1.32 86.84-1.32 86.84 0 77.56 0 77.56-1.32 81.54-1.32 81.54-15.6Q81.54-21.09 79.57-23.34 77.61-25.59 74.24-25.59L74.24-25.59Q69.97-25.59 67.79-23.03 65.62-20.48 65.08-16.5L65.08-16.5 65.08-1.32 69.06-1.32 69.06 0ZM102.04 0.51L102.04 0.51Q98.94 0.51 96.72-1.1 94.5-2.71 93.32-5.68 92.13-8.64 92.13-12.72L92.13-12.72 92.13-13.23Q92.13-17.41 93.32-20.48 94.5-23.56 96.73-25.23 98.97-26.9 102.09-26.9L102.09-26.9Q105.22-26.9 107.46-25.48 109.71-24.05 111.05-21.56L111.05-21.56 111.05-36.77 107.07-36.77 107.07-38.09 111.05-38.09 112.37-38.09 112.37-1.32 116.35-1.32 116.35 0 111.1 0 111.05-4.22Q109.76-2.05 107.46-0.77 105.17 0.51 102.04 0.51ZM102.02-0.81L102.02-0.81Q105.46-0.81 107.74-2.37 110.03-3.93 111.05-6.54L111.05-6.54 111.05-18.92Q110.1-21.75 107.98-23.67 105.85-25.59 102.07-25.59L102.07-25.59Q99.26-25.59 97.36-24.02 95.45-22.46 94.47-19.68 93.5-16.89 93.5-13.23L93.5-13.23 93.5-12.72Q93.5-7.25 95.66-4.03 97.82-0.81 102.02-0.81ZM133.14 0.51L133.14 0.51Q129.7 0.51 127.09-1.17 124.48-2.86 123.01-5.83 121.55-8.81 121.55-12.7L121.55-12.7 121.55-13.72Q121.55-17.6 123.01-20.57 124.48-23.54 127.08-25.22 129.68-26.9 133.1-26.9L133.1-26.9Q136.54-26.9 139.14-25.22 141.74-23.54 143.2-20.57 144.67-17.6 144.67-13.72L144.67-13.72 144.67-12.7Q144.67-8.81 143.2-5.83 141.74-2.86 139.14-1.17 136.54 0.51 133.14 0.51ZM133.14-0.81L133.14-0.81Q136.24-0.81 138.54-2.4 140.83-4 142.09-6.7 143.35-9.4 143.35-12.7L143.35-12.7 143.35-13.72Q143.35-16.97 142.08-19.67 140.81-22.36 138.5-23.97 136.2-25.59 133.1-25.59L133.1-25.59Q129.99-25.59 127.69-23.97 125.38-22.36 124.12-19.67 122.87-16.97 122.87-13.72L122.87-13.72 122.87-12.7Q122.87-9.38 124.12-6.68 125.38-3.98 127.69-2.39 129.99-0.81 133.14-0.81ZM158.65 0L149.38 0 149.38-1.32 153.36-1.32 153.36-25.1 149.38-25.1 149.38-26.42 154.43-26.42 154.68-21.83 154.68-20.92Q155.77-23.75 157.95-25.33 160.12-26.9 163.29-26.9L163.29-26.9Q163.85-26.9 164.57-26.81 165.3-26.71 165.64-26.61L165.64-26.61 165.49-25.44 163.29-25.61Q159.75-25.61 157.54-23.33 155.33-21.04 154.68-17.31L154.68-17.31 154.68-1.32 158.65-1.32 158.65 0ZM177.48 0.51L177.48 0.51Q174.01 0.51 171.92-1.48 169.83-3.47 169.83-6.69L169.83-6.69Q169.83-9.06 171.26-10.88 172.69-12.7 175.29-13.72 177.89-14.75 181.41-14.75L181.41-14.75 187.49-14.75 187.49-18.12Q187.49-21.41 185.58-23.51 183.68-25.61 179.6-25.61L179.6-25.61Q177.45-25.61 175.67-24.8 173.89-24 172.64-22.85L172.64-22.85 172.64-18.53 171.32-18.53 171.32-23.56Q172.96-25.07 174.97-25.99 176.99-26.9 179.62-26.9L179.62-26.9Q184.19-26.9 186.5-24.52 188.8-22.14 188.8-18.07L188.8-18.07 188.8-5.32Q188.8-4.3 188.89-3.3 188.97-2.29 189.17-1.32L189.17-1.32 192.83-1.32 192.83 0 188.02 0Q187.7-1.73 187.59-2.65 187.49-3.56 187.49-4.86L187.49-4.86Q186-2.47 183.4-0.98 180.8 0.51 177.48 0.51ZM177.48-0.78L177.48-0.78Q180.48-0.78 183.29-2.47 186.09-4.15 187.49-7.13L187.49-7.13 187.49-13.4 181.48-13.4Q176.82-13.4 173.98-11.51 171.15-9.62 171.15-6.59L171.15-6.59Q171.15-4.13 172.93-2.45 174.72-0.78 177.48-0.78Z" opacity="1" transform="matrix(1,0,0,1,0,0)" fill="#000000" class="undefined-text-0" data-fill-palette-color="primary" id="text-0"></path></svg></g></svg></g></svg></g></svg></g><g></g></svg></g></svg></g></svg></g></svg></g><defs></defs></svg><rect width="320" height="360" fill="none" stroke="none" visibility="hidden"></rect></g></svg></g></svg>